<svg xmlns="http://www.w3.org/2000/svg" viewBox="0 0 201.85 201.85"><defs><style>.a{fill:none;}.b,.c{fill:none;stroke-miterlimit:10;}.b{stroke:#fff;stroke-width:14px;}.c{stroke:#000;stroke-width:10px;}</style></defs><title>spiral</title><rect class="a" width="201.85" height="201.85"/><path class="b" d="M459.42,239a74.5,74.5,0,0,1,105.35,0,59.6,59.6,0,0,1,0,84.28,47.68,47.68,0,0,1-67.43,0,38.14,38.14,0,0,1,0-53.94,30.51,30.51,0,0,1,43.15,0,24.41,24.41,0,0,1,0,34.52,19.53,19.53,0,0,1-27.62,0,15.62,15.62,0,0,1,0-22.09,12.5,12.5,0,0,1,17.68,0,10,10,0,0,1,0,14.14" transform="translate(-419.9 -174.98)"/><path class="c" d="M459.42,239a74.5,74.5,0,0,1,105.35,0,59.6,59.6,0,0,1,0,84.28,47.68,47.68,0,0,1-67.43,0,38.14,38.14,0,0,1,0-53.94,30.51,30.51,0,0,1,43.15,0,24.41,24.41,0,0,1,0,34.52,19.53,19.53,0,0,1-27.62,0,15.62,15.62,0,0,1,0-22.09,12.5,12.5,0,0,1,17.68,0,10,10,0,0,1,0,14.14" transform="translate(-419.9 -174.98)"/></svg>